<?xml version="1.0" encoding="UTF-8"?>
<svg id="Layer_2" data-name="Layer 2" xmlns="http://www.w3.org/2000/svg" viewBox="0 0 1953 1624.01">
  <defs>
    <style>
      .cls-1 {
        fill: #fff;
      }
    </style>
  </defs>
  <g id="WHITE">
    <path class="cls-1" d="M951.83,183.12l-12.44,78.9c-.11.72-.72,1.25-1.45,1.27-72.57,1.58-169.96,40.72-179.09,122.47-9.49,84.96,62.97,113.67,134.3,116.94.71.03,1.3.56,1.42,1.27,1.29,7.88-.86,5.48-5.46,7.98-70.03,37.93-292.22,36.07-342.73-34.19-28.47-39.61-10.09-75.95-3.19-117.5.1-.59-.16-1.19-.66-1.52-113.73-75.51-246.28-117.43-383.71-115.9-1.8.02-2.11-2.57-.35-2.97l20.8-4.84c.05-.01.11-.02.16-.03,133.43-17.31,277.29,48.12,409.15,9.43,34.44-10.1,70.21-32.84,103.84-44.48,44.82-15.51,119.59-26.97,166.93-27.14,27.97-.09,62.01,8.63,90.97,8.6.93,0,1.64.82,1.49,1.74Z"/>
    <path class="cls-1" d="M1344.59,1342.17c7.25,7.23,62.54,10.13,71.32-2.98.05-.08.1-.16.14-.25,9.25-18.86-53.54-25.44-37.45-57.63,13.02-26.04,106.25,17.02,100.42,42.41-4.69,20.43-37.8,8.96-40.48,29.69-.01.1-.02.2-.01.29,2.31,48.06,2.73,95.98,3.83,144.1.25,11.11,10.76,68.64-2.25,72.2-20.77,5.68-34.77-18.62-37.79-36.26-5.61-32.82,7.55-87.26,6.83-122.18-.22-10.47-4.11-53.01-14.52-55.57-13.8-3.39-14.89,14.89-20.99,20.36-10.51,9.42-38.32,8.99-41.75,18.72-.04.1-.06.21-.08.32-8.04,52.69-6.65,112.13-17.18,163.9-2.45,12.05-9.88,12.91-20.56,8.75-.15-.06-.29-.13-.41-.23-15.75-12.38,11.57-152.6-7.72-177.12-.06-.08-.13-.15-.2-.22-8.52-7.87-52.17-8.7-62.92-5.36-11.46,3.56-8.45,14.98-12.14,18.75-7.7,7.86-55.2,5.89-65.76.91-5.56-2.62-11.57-18.33-22.32-24.02-24.53-13-81.06-8.1-75.36,29.3.05.33.21.63.45.87l5.57,5.42c.25.24.57.39.91.42,58.16,5.49,166.01-8.1,166.09,76.75.02,16.88-8.69,41.58-23.49,50.97-33.33,21.14-154.76,24.96-188.38,3.98-8.81-5.5-19.39-21.54-26.32-23.46-13.24-3.66-21.95,10.69-35.24,7.05-15.1-4.14-23.79-39.17-46.56-40.57-18.25-1.12-29.09,16.64-41.57,24.03-19.57,11.59-42.26,16.32-65.04,12.73-36.39-5.73-64.99-65.23-20.48-69.74,34.3-3.48,22.91,33.48,45.16,37.1,48.36,7.87,91.79-92.61,69.85-131.74-.03-.06-.07-.11-.1-.16-3.61-5.12-4.81-4.94-10.25-2.11-13.85,7.19-37.95,54.28-47.41,59.12-.35.18-.75.22-1.13.1l-17.17-5.07c-.35-.1-.66-.34-.86-.65-11.51-18.15,5-29.88,17.11-41.13,19.72-18.32,66.15-56.95,90.84-28.92,27.37,31.09-8.21,81.28,7.84,115.22.11.24.29.45.5.6,14.32,10.37,32.46,2.16,48.21,8.92,12.92,5.55,22.5,30.12,34.15,40.01,37.97,32.21,125.53,47.4,164.8,12.61,15.4-13.64,18.82-38.15,2.08-51.72-20.17-16.35-112.8-9.92-145.38-23.59-26.16-10.98-27.54-48.58-13.42-68.99,69.64-100.63,190.31,44.66,269.48-42.91.25-.28.39-.64.39-1.01l2.38-322.18c0-.21.04-.4.13-.59,11.88-26.73,24.13-76.82,61.01-70.45.45.08.85.36,1.07.76,13.57,24.11-8.58,45.84-16.21,66.51-20.12,54.53-8.04,219.39-.89,283.33,1.08,9.69,4.93,46.28,9.2,50.54Z"/>
    <path class="cls-1" d="M332.62,1111.03l32.12,30.13c.06.05.11.11.16.18,55.55,69.92-50.77,132.06-88.19,56.41-.26-.53-.19-1.19.19-1.64,12.46-14.8,13.21,6.57,26.06,15.22,19.01,12.81,39.45,9.59,53.33-8.51,37.93-49.48-56.56-104.31-88.06-79.78-3.88,3.02-5.36,4.08-4.57,8.98.1.6.54,1.09,1.13,1.23h0c1.71.43,1.42,2.92-.33,2.97-21.43.58-30.46,10.67-28.52,38.8,7.93,114.85,218.56,142.97,164.67,294.55-51.05,143.58-237.26,146.84-338.77,52.82-22.06-20.43-57.65-73.88-61.41-103.39-2.32-18.16,4.76-69.9,29.68-62.86,9.13,2.58,31.05,33.37,31.71,42.84,2.24,32.53-23.24-12.39-32.52,2.27-4.35,6.86,4.6,37.75,7.71,47.11,14.66,44.11,58.56,88.19,104.16,102.78,1.57.5,2.68-1.54,1.41-2.6-43.24-35.97-69.7-92.74-64.16-149.74,13.14-135.34,193.98-137.88,230.95-12.62,13.54,45.86-25.9,96.15-72.29,101.16-17.92,1.93-64.92-2.65-74.31-20.51-3.31-6.3-1.61-15.52,4.32-16.59,4.1-.74,21.52,14.43,33.14,16.23,63.95,9.92,106.64-24.09,85.02-89.12-12.32-37.07-59.4-67.38-97.7-67.2-26.07.12-70.72,30.07-81.97,54-57.86,123.01,99.1,237.04,205.13,163.68,9.06-6.27,43.38-46.63,46.87-55.98,41.07-110.24-102.22-174.18-167.58-229.99-43.77-37.37-38.52-74.78.1-114.58,127.48-131.38,339.38,35.96,234.38,160.13-13.07,15.45-26.81,27.18-47.55,14.77-22.43-13.42-4.24-51.3,10.57-43.75,20.84,10.62-11.42,27.48,9.41,38.85.53.29,1.2.22,1.67-.17,74.11-60.72,28.28-185.83-64.84-188.71-1.39-.04-2.09,1.67-1.08,2.62Z"/>
    <path class="cls-1" d="M695.14,1518.87c-34.87,29.51-83.22,23.7-109.84-13.02-9.15-12.62-10.47-27.08-21.24-37.72-.72-.71-1.92-.54-2.4.35-12.73,23.64-34.35,61.64-61.8,67.33-81.18,16.82-103.53-97.71-53.5-142.31.5-.45,1.26-.51,1.83-.14,23.44,15.37,5.37,34.68,4.93,58.89-.5,27.69,12.84,60.19,45.8,49.78,19.7-6.22,49.83-71.04,49.42-90.72-.19-9.07-4.87-18.1-4.64-29.03.58-27.69,24.04-48.52,51.36-34.45,36.27,18.68,1.04,69.51-1.54,96.22-6.31,65.36,59.17,95.43,95.6,37.9,34.72-54.84,42.23-162.12,23.7-223.02-11.71-38.48-47-36.91-79.55-52.32-96.02-45.45-281.96-149.48-262.02-277.24,3.88-24.88,34.57-44.74,58.92-43.29,52.59,3.12,140.67,53.1,179.89,88.3,39.73,35.66,92.48,113.71,113.23,162.84,14.34,33.95,15.36,69.94,45.51,94.58,46.83,38.29,178.2,40.51,231.53,13.32,4.68-2.39,24.01-24.94,25.95-11.06,5.95,42.35-129.65,44.91-154.51,43.12-19.73-1.42-106.1-23.34-113.6-18.65-5,3.12-2.77,6.39-2.29,10.52,2.25,19.04,10.69,45.07,10.89,64,.57,54.01-29.5,150.17-71.64,185.83ZM636.45,1044.82c-42.43-51.26-147.83-141.71-217.85-129.87-29.97,5.06-33.47,37.91-25.85,62.46,20.29,65.35,141.44,151.14,200.25,187.05,37.37,22.81,126.34,81.82,104.69-9.92-8.37-35.47-38.04-81.69-61.24-109.72Z"/>
    <path class="cls-1" d="M737.47,562.01c13.77,35.62,40.17,70.03,73.24,88.95.55.31.85.93.74,1.56-19.88,117.93-79.76,219.85-161.77,304.8-1.2,1.24-3.23-.19-2.44-1.73,25.72-50.34,63.01-95.16,77.79-150.71.19-.72-.17-1.46-.85-1.76-113-50.39-193.46-173.6-196.51-297.63-.03-1.19,1.27-1.93,2.29-1.32,61.06,36.77,135.2,55.14,206.14,56.9.61.02,1.14.39,1.35.95Z"/>
    <path class="cls-1" d="M1018.31,673.61c24.11,151.16,107.27,286.36,226.73,380.15,1.43,1.13,0,3.36-1.62,2.53-100.06-51.27-174.62-140.31-234.88-233.96-.41-.63-1.22-.86-1.9-.54-56.9,26.68-115.85,16.66-176.61,19.61-.47.02-.9.26-1.17.65-41.47,59.94-101.94,102.83-162.86,141.18-1.25.79-2.8-.52-2.19-1.88,4.99-11.19,40.02-42.28,44.98-48.24,60.25-72.45,106.41-170.18,119.41-263.76.13-.95,1.11-1.53,2.01-1.2,63.54,23.63,122.07,34.1,185.96,4.34.91-.42,1.96.13,2.12,1.12Z"/>
    <path class="cls-1" d="M1746.93,1365.73v20.64c0,.86-.71,1.54-1.57,1.5-30.07-1.19-56.77,2.67-84.4,15.01-12.34,5.51-68.78,39.12-76.33,47.3-4.9,5.32-7.26,7.89-6.29,15.28.1.73.69,1.29,1.42,1.32,53.28,2.65,105.55,12.17,157.24,24.98.16.04.33.06.5.04,19.36-1.46,20.84-32.36,53.24-29.19,23.31,2.28,18.64,67.87,66.09,16.58,20.68-22.35,42.48-73.45,32.43-103.49-13.4-40.08-53.83,39.73-68.92,45.47-.44.17-.93.12-1.34-.12l-8.52-5.19c-.66-.4-.91-1.23-.59-1.93,19.42-41.46,53.01-79.9,103.75-69.78,34.62,6.9,5.05,50.7,4.13,67.56-.53,9.82,6.45,21.37,6.92,32.42,1.58,37.08-12.42,73.37,26.52,92.3.29.14.54.37.68.66,8.81,17.11-37.39,14.21-49.36,7.46-20.74-11.69-13.13-47.11-29.41-49.22-18.02-2.33-22.2,14.39-36.19,21.68-40.47,21.11-55.8-7.49-87.96-8.83-41.85-1.75-74.5-2.05-117.86-9.54-32.12-5.54-74.08-28.72-105.96-9.03-28.93,17.87-11.82,52.75-17.64,81.25-.66,3.26-21.33,41.81-24.16,45.87-5.36,7.7-17.15,10.4-22.5,2.66-7.33-10.61,21.35-99.55,25.08-119.54,22.02-118.24-9.82-244.74-14.74-364.57-.96-23.51-2.92-65.03-.02-86.88,3.76-28.4,31.36-23.05,37,4.6,11.96,58.61,8.25,125.47,16.93,184.83,0,.06.01.13.02.2l1.84,199.45c0,.29.08.59.25.83,2.25,3.09,9.5,6.63,13.14,7.15,11.48,1.64,67.85-40.69,84.88-49.44,37.12-19.09,77.84-33.98,120.26-31.8.8.04,1.43.71,1.43,1.51Z"/>
    <path class="cls-1" d="M1383.14,103.56l-111.91,36.14c-.11.04-.23.06-.34.07-71.71,6.06-143.18,6.72-214.61-1.89-.74-.09-1.43.37-1.63,1.09l-5.71,20.73c-.18.65.09,1.34.67,1.69,28.4,17.14,59.52,36.73,83.88,59.06,23.46,21.51,36.81,56.99,67.75,56.33,1.55-.03,2.17,1.98.85,2.79l-100.21,61.86c-.15.09-.31.16-.48.2-11.09,2.52-27.09-21.15-36.1-28.31-31.62-25.12-62.64-40.53-103.45-45.28-.84-.1-1.45-.87-1.33-1.71,4.07-28.19,17.02-54.92,19.91-83.41,6.2-61.08-8.16-128.23-39.42-180.65-.72-1.21.44-2.67,1.77-2.21,8.94,3.1,31.74,24.96,36.76,28.2,68.75,44.27,164.96,77.68,246.66,83.01,52.69,3.44,104.3-4.77,156.3-10.67,1.81-.21,2.36,2.38.63,2.94Z"/>
    <path class="cls-1" d="M1020.62,500.85c-1.06-.82-.65-2.51.68-2.71,62.82-9.37,134.55-5.55,186.02,35.77,45.78,36.75,17.89,83.71-5.82,125.44-19.78,34.82-51.88,72.95-82.4,98.9-32.22,27.4-36.4,36.27-55.87-6.16-12.68-27.64-18.76-59.88-23.05-89.94-.09-.66.26-1.29.86-1.57,50.64-23.59,76.86-99.31,28.47-137.24-16.09-12.61-34.54-11.33-48.9-22.49Z"/>
    <path class="cls-1" d="M1215.59,302.09c-8.45,43.51,26.01,83.52,27.08,128.53.02,1.04,1.05,1.76,2.02,1.41,44.47-16.12,87.22-40.98,119.63-75.46,11.81-12.56,21.22-29.47,31.93-42.23,3.64-4.34,4.52-10.31,11.38-9.65.99.1,1.62,1.12,1.27,2.05-33.71,89.38-102.36,157.72-165.44,226.93-.46.5-1.19.64-1.79.33-31.65-15.87-62.3-38.85-98.4-43.64-.79-.11-1.36-.81-1.3-1.6,3.74-47.87-11.96-90.29-33.09-132.05-.16-.31-.21-.67-.13-1.02,1.73-6.87,29.37-23.95,36.89-28.2,8.99-5.08,58.05-28.63,68.66-27.19.87.12,1.46.93,1.29,1.79Z"/>
    <path class="cls-1" d="M1067.73,386.56c-.18.51-.62.88-1.15.98-4.82.9-4.57.47-7.68-2.81-13.95-14.66-26.16-33.58-43.03-46.7-9.7-7.54-59.4-38.12-50.82-6.97,2.82,10.24,35.91,29.81,36.6,49.26.04,1.25-1.41,2-2.42,1.26-10.75-7.97-20.99-16.64-33.23-22.54-10.45-5.04-47.46-11.87-46.47-22.52.3-3.3,32.3-54.13,34.77-56.34,4.76-4.25,4.33-3.57,10.23-2.5,44.47,8.08,83.7,39.28,116.84,67.73.47.41.64,1.06.43,1.65l-14.07,39.49Z"/>
    <path class="cls-1" d="M1547.67,944.99c7.02.06,17.71,9.36,18.14,16.75.4,6.74-11.12,69.63-13.97,72.5-10.54,10.61-29.76-1.6-29.98-13.52-.26-13.6,9.15-75.88,25.81-75.74Z"/>
  </g>
</svg>