<?xml version="1.0" encoding="UTF-8"?>
<svg id="Layer_2" data-name="Layer 2" xmlns="http://www.w3.org/2000/svg" viewBox="0 0 1265.24 1063.23">
  <g id="Layer_2-2" data-name="Layer 2">
    <g id="BLACK">
      <g>
        <path d="M807.8,181.64l-12.91,81.89c-72.7,1.16-171.16,40.28-180.34,122.49-9.54,85.43,63.79,113.99,135.51,116.99,1.71,9.34-.43,6.58-5.25,9.19-70.03,37.93-292.22,36.07-342.73-34.19-28.69-39.92-9.8-76.52-3.03-118.48C281.14,281.02,142.93,238.63,0,243.4l35.06-8.15c133.45-17.34,277.34,48.12,409.23,9.42,34.44-10.1,70.21-32.84,103.84-44.48,44.82-15.51,119.59-26.97,166.93-27.14,28.54-.1,63.41,8.99,92.74,8.58h0Z"/>
        <path d="M592.8,561.34c13.79,36.27,40.73,71.43,74.52,90.4-20.23,121.54-82.94,226.12-168.61,312.66,25.87-54.26,66.98-101.25,82.35-160.51-114.45-50.42-195.81-175.51-197.74-300.9,61.79,37.89,137.33,56.72,209.49,58.35h-.01Z"/>
        <path d="M873.69,671.9c24.48,156.98,112.64,296.91,239.06,391.33-107.38-50.15-186.14-143.48-249.23-241.74-57.5,27.49-117.1,17.12-178.54,20.21-42.02,61.05-103.74,104.43-165.67,143.3-5.05-5.52,39.53-44.83,45.17-51.62,60.65-72.93,107.02-171.47,119.67-265.62,64.82,24.32,124.34,35.23,189.53,4.14h0Z"/>
        <path d="M1252.86,99.3l-126.11,40.73c-72.2,6.12-144.15,6.75-216.07-2.03l-6.36,23.08c28.67,17.28,60.22,37.06,84.86,59.65,25.01,22.93,38.53,61.75,74.12,55.72l-105.95,65.41c-11.1,2.94-27.27-21.03-36.36-28.25-32.02-25.44-63.42-40.92-104.99-45.45,3.81-28.75,17.18-55.94,20.13-84.94,6.28-61.91-8.55-130.06-40.71-182.79,4.41-4.28,34.01,24.38,39.82,28.13,68.75,44.27,164.96,77.68,246.66,83.01,57.64,3.76,113.99-6.41,170.96-12.26h0Z"/>
        <path d="M873.72,498.91c63.59-10,136.93-6.77,189.3,35.26,45.78,36.75,17.89,83.71-5.82,125.44-19.78,34.82-51.88,72.95-82.4,98.9-32.22,27.4-36.4,36.27-55.87-6.16-12.83-27.98-18.91-60.67-23.21-91.04,51.3-23.05,78.2-99.52,29.49-137.71-17.08-13.39-36.81-11.12-51.5-24.7h0Z"/>
        <path d="M1071.53,301.15c-9.48,44.66,26.86,85.57,26.86,131.86,45.18-16.09,88.73-41.19,121.62-76.18,11.81-12.56,21.22-29.47,31.93-42.23,3.95-4.71,4.65-11.35,13.3-9.32-33.61,90.59-103.16,159.55-166.86,229.5-32.42-16.09-63.74-39.92-100.84-44.33,4.19-48.62-11.74-91.58-33.19-133.9.12-6.42,29.22-24.42,36.97-28.8,9.56-5.41,64.43-31.69,70.2-26.6h0Z"/>
        <path d="M923.13,387.65c-5.73,1.11-5.25.81-8.54-2.64-13.95-14.66-26.16-33.58-43.03-46.7-9.7-7.54-59.4-38.12-50.82-6.97,2.96,10.75,39.3,31.79,36.45,52.18-11.59-8.41-22.4-17.89-35.5-24.21-10.45-5.04-47.46-11.87-46.47-22.52.3-3.3,32.3-54.13,34.77-56.34,4.76-4.25,4.33-3.57,10.23-2.5,44.82,8.14,84.32,39.77,117.62,68.4l-14.71,41.28v.02Z"/>
      </g>
    </g>
  </g>
</svg>